# xmcd
#
# Track frame offsets: 
#        150
#        17489
#        32920
#        47213
#        61060
#        76220
#        90593
#        110363
#        129088
#        148579
#
# Disc length: 2219 seconds
#
# Revision: 0
# Processed by: cddbd v1.5.2PL0 Copyright (c) Steve Scherf et al.
# Submitted via: ExactAudioCopyFreeDBPlugin 1.0
#
DISCID=7408a90a
DTITLE=Gail Davies - Where Is a Woman to Go
DYEAR=1984
DGENRE=Country
TTITLE0=Break Away
TTITLE1=The Trouble With Love
TTITLE2=Nothing Can Hurt Me Now
TTITLE3=Lovin' Me Too
TTITLE4=Unwed Fathers
TTITLE5=Different Train of Thought
TTITLE6=Lion in the Winter
TTITLE7=Where Is a Woman to Go
TTITLE8=Jagged Edge of a Broken Heart
TTITLE9=Not a Day Goes By
EXTD=
EXTT0=
EXTT1=
EXTT2=
EXTT3=
EXTT4=
EXTT5=
EXTT6=
EXTT7=
EXTT8=
EXTT9=
PLAYORDER=
